<mxfile host="drawio-plugin" modified="2023-10-12T14:18:15.459Z" agent="5.0 (Windows NT 10.0; Win64; x64) AppleWebKit/537.36 (KHTML, like Gecko) Chrome/111.0.0.0 Safari/537.36" etag="RqrTfkMBhc6OD5pJSCm6" version="20.5.3" type="embed"><diagram name="Page-1" id="OmL_BDpDbVxm8sVSn2Uc"><mxGraphModel dx="1044" dy="750" grid="1" gridSize="10" guides="1" tooltips="1" connect="1" arrows="1" fold="1" page="1" pageScale="1" pageWidth="850" pageHeight="1100" math="0" shadow="0"><root><mxCell id="0"/><mxCell id="1" parent="0"/><mxCell id="33" value="USER" style="swimlane;fontStyle=1;align=center;verticalAlign=top;childLayout=stackLayout;horizontal=1;startSize=26;horizontalStack=0;resizeParent=1;resizeParentMax=0;resizeLast=0;collapsible=1;marginBottom=0;" vertex="1" parent="1"><mxGeometry x="480" y="80" width="160" height="144" as="geometry"/></mxCell><mxCell id="34" value="UUID &#10;&#10;Personal Details &#10;&#10;Emergency Contact &#10;" style="text;strokeColor=none;fillColor=none;align=left;verticalAlign=top;spacingLeft=4;spacingRight=4;overflow=hidden;rotatable=0;points=[[0,0.5],[1,0.5]];portConstraint=eastwest;" vertex="1" parent="33"><mxGeometry y="26" width="160" height="84" as="geometry"/></mxCell><mxCell id="35" value="" style="line;strokeWidth=1;fillColor=none;align=left;verticalAlign=middle;spacingTop=-1;spacingLeft=3;spacingRight=3;rotatable=0;labelPosition=right;points=[];portConstraint=eastwest;strokeColor=inherit;" vertex="1" parent="33"><mxGeometry y="110" width="160" height="8" as="geometry"/></mxCell><mxCell id="36" value="+ method(type): type" style="text;strokeColor=none;fillColor=none;align=left;verticalAlign=top;spacingLeft=4;spacingRight=4;overflow=hidden;rotatable=0;points=[[0,0.5],[1,0.5]];portConstraint=eastwest;" vertex="1" parent="33"><mxGeometry y="118" width="160" height="26" as="geometry"/></mxCell><mxCell id="62" style="edgeStyle=orthogonalEdgeStyle;rounded=0;orthogonalLoop=1;jettySize=auto;html=1;exitX=0.5;exitY=0;exitDx=0;exitDy=0;" edge="1" parent="1" source="37"><mxGeometry relative="1" as="geometry"><mxPoint x="560" y="240" as="targetPoint"/></mxGeometry></mxCell><mxCell id="37" value="TRAINER" style="swimlane;fontStyle=1;align=center;verticalAlign=top;childLayout=stackLayout;horizontal=1;startSize=26;horizontalStack=0;resizeParent=1;resizeParentMax=0;resizeLast=0;collapsible=1;marginBottom=0;" vertex="1" parent="1"><mxGeometry x="640" y="280" width="160" height="114" as="geometry"/></mxCell><mxCell id="38" value="Specialty&#10;&#10;List of available time" style="text;strokeColor=none;fillColor=none;align=left;verticalAlign=top;spacingLeft=4;spacingRight=4;overflow=hidden;rotatable=0;points=[[0,0.5],[1,0.5]];portConstraint=eastwest;" vertex="1" parent="37"><mxGeometry y="26" width="160" height="54" as="geometry"/></mxCell><mxCell id="39" value="" style="line;strokeWidth=1;fillColor=none;align=left;verticalAlign=middle;spacingTop=-1;spacingLeft=3;spacingRight=3;rotatable=0;labelPosition=right;points=[];portConstraint=eastwest;strokeColor=inherit;" vertex="1" parent="37"><mxGeometry y="80" width="160" height="8" as="geometry"/></mxCell><mxCell id="40" value="Set available time slots" style="text;strokeColor=none;fillColor=none;align=left;verticalAlign=top;spacingLeft=4;spacingRight=4;overflow=hidden;rotatable=0;points=[[0,0.5],[1,0.5]];portConstraint=eastwest;" vertex="1" parent="37"><mxGeometry y="88" width="160" height="26" as="geometry"/></mxCell><mxCell id="57" style="edgeStyle=orthogonalEdgeStyle;rounded=0;orthogonalLoop=1;jettySize=auto;html=1;exitX=0.5;exitY=0;exitDx=0;exitDy=0;" edge="1" parent="1" source="41"><mxGeometry relative="1" as="geometry"><mxPoint x="560" y="240" as="targetPoint"/></mxGeometry></mxCell><mxCell id="41" value="MEMBER" style="swimlane;fontStyle=1;align=center;verticalAlign=top;childLayout=stackLayout;horizontal=1;startSize=26;horizontalStack=0;resizeParent=1;resizeParentMax=0;resizeLast=0;collapsible=1;marginBottom=0;" vertex="1" parent="1"><mxGeometry x="320" y="280" width="160" height="240" as="geometry"/></mxCell><mxCell id="42" value="Medical History&#10;&#10;Membership Tier&#10;&#10;Fitness Goals" style="text;strokeColor=none;fillColor=none;align=left;verticalAlign=top;spacingLeft=4;spacingRight=4;overflow=hidden;rotatable=0;points=[[0,0.5],[1,0.5]];portConstraint=eastwest;" vertex="1" parent="41"><mxGeometry y="26" width="160" height="84" as="geometry"/></mxCell><mxCell id="43" value="" style="line;strokeWidth=1;fillColor=none;align=left;verticalAlign=middle;spacingTop=-1;spacingLeft=3;spacingRight=3;rotatable=0;labelPosition=right;points=[];portConstraint=eastwest;strokeColor=inherit;" vertex="1" parent="41"><mxGeometry y="110" width="160" height="8" as="geometry"/></mxCell><mxCell id="44" value="Booking to activity&#10;&#10;Booking to personal trainer&#10;&#10;View activity schedule&#10;&#10;Check availability" style="text;strokeColor=none;fillColor=none;align=left;verticalAlign=top;spacingLeft=4;spacingRight=4;overflow=hidden;rotatable=0;points=[[0,0.5],[1,0.5]];portConstraint=eastwest;" vertex="1" parent="41"><mxGeometry y="118" width="160" height="122" as="geometry"/></mxCell><mxCell id="51" value="IS-A" style="text;html=1;strokeColor=none;fillColor=none;align=center;verticalAlign=middle;whiteSpace=wrap;rounded=0;" vertex="1" parent="1"><mxGeometry x="395" y="234" width="60" height="30" as="geometry"/></mxCell><mxCell id="52" value="IS-A" style="text;html=1;strokeColor=none;fillColor=none;align=center;verticalAlign=middle;whiteSpace=wrap;rounded=0;" vertex="1" parent="1"><mxGeometry x="660" y="234" width="60" height="30" as="geometry"/></mxCell><mxCell id="63" value="ACTIVITY" style="swimlane;fontStyle=1;align=center;verticalAlign=top;childLayout=stackLayout;horizontal=1;startSize=26;horizontalStack=0;resizeParent=1;resizeParentMax=0;resizeLast=0;collapsible=1;marginBottom=0;" vertex="1" parent="1"><mxGeometry x="80" y="280" width="160" height="148" as="geometry"/></mxCell><mxCell id="64" value="Name&#10;&#10;Schedule&#10;&#10;List of members&#10;&#10;TRAINER" style="text;strokeColor=none;fillColor=none;align=left;verticalAlign=top;spacingLeft=4;spacingRight=4;overflow=hidden;rotatable=0;points=[[0,0.5],[1,0.5]];portConstraint=eastwest;" vertex="1" parent="63"><mxGeometry y="26" width="160" height="114" as="geometry"/></mxCell><mxCell id="65" value="" style="line;strokeWidth=1;fillColor=none;align=left;verticalAlign=middle;spacingTop=-1;spacingLeft=3;spacingRight=3;rotatable=0;labelPosition=right;points=[];portConstraint=eastwest;strokeColor=inherit;" vertex="1" parent="63"><mxGeometry y="140" width="160" height="8" as="geometry"/></mxCell></root></mxGraphModel></diagram></mxfile>